<?xml version="1.0" encoding="UTF-8" standalone="no"?>
<!DOCTYPE svg PUBLIC "-//W3C//DTD SVG 1.1//EN" "http://www.w3.org/Graphics/SVG/1.1/DTD/svg11.dtd">
<svg width="100%" height="100%" viewBox="0 0 1000 1000" version="1.1" xmlns="http://www.w3.org/2000/svg" xmlns:xlink="http://www.w3.org/1999/xlink" xml:space="preserve" xmlns:serif="http://www.serif.com/" style="fill-rule:evenodd;clip-rule:evenodd;stroke-linejoin:round;stroke-miterlimit:2;">
    <g id="path11124-2-3-9-7-2" transform="matrix(5.669291,0,0,5.669291,-3092.853178,-6575.304787)">
        <path d="M633.739,1170.211L614.529,1229.777L551.942,1229.641L581.584,1251.078C581.9,1250.905 582.222,1250.741 582.551,1250.593C586.451,1248.848 590.824,1249.454 594.938,1249.805C595.2,1249.828 595.467,1249.846 595.733,1249.866L580.676,1238.977L607.903,1239.036C608.526,1238.819 609.149,1238.603 609.772,1238.386C609.363,1237.758 609.428,1236.846 609.973,1236.316C611.069,1235.603 612.423,1235.365 613.676,1235.017C612.919,1234.65 612.798,1233.399 613.624,1233.039C616.54,1232.35 619.471,1231.596 622.467,1231.323C622.859,1231.171 623.709,1231.526 623.692,1230.992C623.761,1230.692 623.912,1230.46 624.111,1230.281L633.74,1200.423L643.574,1230.915C646.128,1229.043 648.768,1227.199 651.873,1226.437L633.739,1170.211ZM715.537,1229.641L675.375,1229.729C675.562,1229.91 675.743,1230.098 675.909,1230.302C676.714,1231.181 677.127,1232.318 677.428,1233.441C678.783,1235.407 680.496,1237.12 681.923,1239.037L688.653,1239.027C688.636,1238.972 688.622,1238.916 688.612,1238.858C688.446,1237.847 689.599,1237.382 690.434,1237.478C692.066,1237.647 693.499,1238.557 695.058,1239.022L696.057,1239.021C695.656,1238.099 695.246,1237.179 694.844,1236.256L694.844,1236.256C694.635,1235.78 694.427,1235.304 694.218,1234.828C696.257,1235.961 698.318,1237.057 700.337,1238.227C700.754,1238.499 701.189,1238.757 701.625,1239.017L702.566,1239.016L715.537,1229.641ZM660.698,1269.379L659.479,1270.284C659.281,1270.63 659.064,1270.962 658.841,1271.29C659.345,1272.019 659.823,1272.762 660.172,1273.582C661.183,1275.582 660.678,1277.983 659.472,1279.781L660.843,1283.971C662.378,1283.71 663.943,1283.648 665.466,1283.313C666.4,1283.071 667.528,1282.895 667.972,1281.915C668.385,1281.209 668.813,1280.509 669.238,1279.807L666.95,1272.817C664.936,1271.911 663.062,1270.647 661.214,1269.44C661.042,1269.419 660.87,1269.397 660.698,1269.379L660.698,1269.379ZM599.882,1274.794L594.971,1289.798C595.464,1290.454 596.006,1291.065 596.713,1291.515C598.388,1292.371 599.59,1293.896 600.414,1295.554C601.269,1296.646 601.186,1298.431 600.01,1299.263C597.966,1300.286 595.422,1300.433 593.309,1299.509C592.818,1299.363 592.389,1299.083 592.05,1298.718L583.186,1325.799L633.384,1289.161C633.06,1288.023 633.107,1286.8 633.742,1285.758C633.254,1283.567 632.56,1281.361 631.209,1279.537C631.166,1279.478 631.118,1279.423 631.074,1279.366L623.608,1284.815C622.918,1285.961 621.923,1286.964 620.955,1287.84C619.436,1289.093 618.165,1290.602 616.75,1291.962C615.284,1293.102 613.466,1293.409 611.645,1293.547L600.944,1301.357L603.839,1292.513C602.6,1291.856 601.608,1290.755 601.249,1289.366C600.697,1288.038 601.322,1286.507 602.451,1285.701C601.326,1284.123 602.075,1281.895 603.537,1280.811C604.081,1279.858 604.295,1278.709 604.69,1277.672C604.944,1277.043 605.174,1276.4 605.4,1275.754C603.527,1275.676 601.667,1275.365 599.882,1274.794ZM641.235,1282.891C641.27,1282.986 641.306,1283.081 641.338,1283.177C641.85,1285.517 641.958,1287.952 641.772,1290.34C641.72,1291.557 641.51,1293.083 640.397,1293.761L684.293,1325.799L671.866,1287.835C670.923,1289.096 670.25,1290.56 669.87,1292.086C669.719,1292.968 669.201,1294.075 670.039,1294.778C670.945,1295.714 671.507,1297.426 670.428,1298.45C669.156,1299.433 667.475,1299.755 665.914,1299.462L666.534,1301.357L661.898,1297.973C661.514,1298.29 661.035,1298.455 660.524,1298.26C659.108,1297.406 657.971,1296.103 657.274,1294.597L648.983,1288.547C648.231,1288.701 647.466,1288.794 646.707,1288.83C645.061,1289.163 642.961,1288.356 642.617,1286.559C642.514,1285.725 642.735,1284.963 643.127,1284.272L641.235,1282.891ZM665.012,1289.61C664.332,1289.775 663.641,1289.991 662.934,1289.925C662.908,1290.017 662.893,1290.109 662.883,1290.202L663.575,1292.316C663.726,1291.368 664.523,1290.613 664.94,1289.757L664.968,1289.7L665.012,1289.61Z" style="fill:rgb(0,63,145);fill-rule:nonzero;"/>
    </g>
    <g id="path1204-7-4-8-64-6-0-7-0-6" transform="matrix(5.669291,0,0,5.669291,-3092.853178,-6575.304787)">
        <path d="M669.328,1225.116C669.049,1226.092 668.733,1226.767 668.379,1227.133C667.316,1226.249 666.375,1225.915 665.463,1225.71C665.972,1226.28 666.133,1226.72 666.034,1227.063C663.712,1226.506 661.361,1224.995 659.039,1225.316C659.784,1225.811 660.331,1226.28 660.469,1226.698C658.663,1226.883 657.536,1226.511 656.276,1226.764C657.115,1227.141 657.945,1227.499 659.006,1228.32C655.44,1228.054 652.054,1227.386 646.576,1231.387C648.745,1231.249 651.014,1229.984 652.904,1231.317C651.346,1231.364 646.941,1232.355 644.801,1233.964C645.834,1233.712 646.713,1233.576 647.141,1233.778C646.145,1234.591 644.64,1235.064 642.276,1234.964C644.096,1236.221 645.915,1235.935 647.734,1235.795L641.687,1238.916C642.029,1239.456 642.307,1240.034 642.495,1240.654C642.495,1240.667 642.505,1240.679 642.505,1240.692L643.818,1241.372C643.525,1241.585 643.22,1241.802 642.92,1242.019C643.834,1244.327 645.589,1246.213 646.927,1248.287C647.701,1249.211 648.144,1250.507 647.664,1251.675C647.445,1252.843 647.039,1254.042 646.139,1254.876C644.966,1255.875 643.323,1256.561 641.77,1256.212C640.726,1255.715 639.511,1255.49 638.654,1254.646C637.701,1253.949 637.284,1252.679 636.2,1252.159C634.121,1251.786 631.848,1251.828 630.006,1250.636C629.409,1251.636 628.737,1252.591 628.159,1253.603C626.526,1256.001 626.748,1259.157 627.785,1261.745C627.981,1262.145 628.095,1262.556 628.149,1262.971C633.319,1265.125 638.962,1266.731 646.414,1266.234C647.869,1269.386 655.178,1273.662 654.473,1276.673C653.849,1279.333 650.922,1282.37 650.922,1282.37C650.922,1282.37 650.211,1282.429 649.894,1282.6C649.478,1282.825 649.434,1283.584 649.434,1283.584C649.434,1283.584 648.155,1282.749 647.441,1282.789C642.308,1287.035 645.029,1287.369 649.942,1286.138C651.294,1285.799 653.619,1283.872 654.844,1282.161C656.118,1280.382 658.314,1278.684 658.61,1276.301C658.888,1274.063 656.169,1271.755 654.965,1269.114C653.664,1266.26 654.329,1263.39 654.329,1263.39C654.329,1263.39 654.456,1264.796 654.992,1265.466C655.375,1265.945 656.419,1266.923 657.621,1266.981C661.206,1267.156 665.093,1267.764 666.317,1268.784C668.492,1270.596 671.327,1273.41 672.644,1275.461C673.511,1276.812 673.207,1277.739 673.439,1278.156C673.814,1278.83 674.975,1278.571 675.332,1279.137C675.938,1280.096 674.309,1281.326 674.904,1282.147C676.051,1283.731 679.498,1284.183 680.045,1283.101C680.249,1282.697 678.927,1280.567 678.022,1278.782C677.382,1277.518 677.548,1276.684 677.061,1275.972C676.591,1275.284 674.785,1273.773 673.766,1272.371C672.255,1270.29 669.715,1265.772 668.985,1265.541C668.168,1265.282 659.361,1261.387 659.361,1261.387C661.281,1258.637 658.963,1253.861 659.026,1252.418C659.096,1250.817 661.674,1243.103 664.7,1239.355C667.854,1243.257 670.376,1241.101 673.824,1242.837C675.345,1243.632 676.376,1246.224 676.849,1246.277C680.276,1246.666 681.1,1245.505 681.43,1242.201C681.451,1241.512 677.671,1237.237 675.379,1234.371C674.941,1230.955 672.977,1230.695 670.158,1228.794C670.497,1228.491 670.208,1227.247 669.328,1225.116L669.328,1225.116ZM634.637,1231.621C633.815,1232.791 633.322,1233.962 632.931,1235.132C631.296,1233.109 628.534,1232.953 626.365,1232.043C627.258,1232.592 627.334,1233.25 627.575,1233.8C623.25,1232.839 621.021,1233.656 618.013,1234.2C619.511,1234.629 620.635,1235.142 621.409,1235.86C618.504,1235.833 615.53,1236.8 612.717,1237.416C614.856,1237.71 615.416,1238.174 616.275,1238.605C614.155,1239.096 612.344,1239.72 610.556,1240.353C611.748,1240.716 612.496,1240.91 613.11,1241.584C610.356,1242.6 608.903,1244.509 604.755,1244.566C605.777,1246.62 607.51,1246.475 609.02,1247.022C607.858,1249.816 603.75,1252.45 596.742,1252.062C590.705,1251.728 585.112,1250.207 580.586,1254.389C577,1253.446 572.625,1252.158 569.708,1254.293C564.841,1257.853 563.601,1264.008 557.063,1263.437C558.147,1264.916 559.941,1265.297 562.028,1265.342C559.357,1267.118 556.633,1267 553.962,1266.667C556.326,1267.68 559.641,1273.252 568.437,1264.47C568.23,1266.159 567.647,1267.471 567.015,1268.735C571.532,1268.435 573.054,1255.424 578.389,1256.586C576.132,1259.207 577.179,1266.031 578.109,1268.409C578.803,1270.187 578.394,1273.2 576.687,1275.189C575.661,1276.384 572.547,1277.004 572.352,1278.417C572.082,1280.373 570.913,1282.85 570.313,1284.616C569.193,1287.91 568.101,1289.311 568.101,1289.311L566.977,1289.38C566.967,1289.754 566.609,1290.147 567.532,1290.449C567.312,1290.464 566.603,1290.581 565.847,1290.516C565.689,1290.502 565.553,1290.033 565.398,1290.024C564.712,1289.983 564.026,1290.356 563.792,1290.951C562.72,1293.677 562.96,1295.182 564.672,1294.523C564.672,1294.523 569.129,1293.183 570.536,1291.49C571.843,1289.918 572.724,1284.262 576.1,1281.271C579.78,1278.012 583.102,1276.25 585.517,1274.343C588.719,1271.813 590.388,1269.673 589.763,1269.769C594.759,1269.703 599.305,1273.062 603.782,1273.517C606.972,1273.84 610.875,1273.517 613.414,1272.742C613.414,1272.742 615.394,1276.576 616.478,1278.439C617.346,1279.931 618.789,1280.832 618.456,1282.086C617.639,1285.164 612.247,1288.214 612.419,1288.238C612.419,1288.238 611.248,1286.545 609.21,1288.382C608.42,1289.094 606.558,1291.94 608.269,1291.62C608.856,1291.51 614.318,1291.682 615.574,1290.223C615.574,1290.223 617.035,1288.489 618.582,1287.15C620.189,1285.759 622.127,1283.818 622.341,1282.561C622.92,1279.15 619.36,1273.129 619.36,1273.129C629.717,1273.703 633.635,1276.32 635.774,1285.02C635.774,1285.02 636.306,1284.87 636.54,1284.974C636.86,1285.116 637.195,1285.796 637.195,1285.796C632.536,1287.103 637.692,1292.491 639.084,1291.891C639.956,1292.927 639.956,1284.788 639.096,1283.119C638.077,1281.139 636.429,1278.675 635.353,1276.312C634.534,1274.512 634.533,1272.611 632.592,1271.837C629.712,1270.687 626.391,1269.846 624.104,1268.281C624.782,1266.583 626.245,1264.996 626.08,1263.177C622.425,1254.291 627.722,1251.968 629.44,1247.022C631.526,1250.524 634.623,1249.308 637.195,1250.253C638.797,1250.842 639.653,1253.637 641.359,1253.689C642.083,1253.711 641.971,1254.052 642.389,1254.223C644.565,1253.962 645.401,1252.945 645.412,1251.619C645.412,1251.289 645.909,1250.72 645.728,1250.395C644.446,1248.095 642.537,1246.08 641.433,1243.963C640.691,1242.541 640.489,1240.288 639.261,1239.2L636.419,1236.683C635.938,1234.977 635.404,1233.279 634.637,1231.621L634.637,1231.621ZM697.549,1238.475C697.888,1239.223 698.204,1239.97 698.19,1240.717C695.787,1241.143 695.577,1240.948 690.572,1239.019C691.635,1239.345 691.314,1241.048 693.044,1241.973C692.627,1241.851 690.681,1241.414 690.201,1241.51C690.453,1241.714 690.612,1241.917 690.652,1242.121C688.884,1242.196 688.496,1242.686 686.932,1243.303C688.859,1243.229 689.398,1243.489 690.711,1243.634C688.016,1244.183 688.482,1244.235 684.207,1245.675C686.649,1245.449 687.203,1246.549 687.708,1246.727C687.708,1246.727 682.871,1247.461 680.672,1248.621C683.456,1248.263 683.911,1248.779 684.861,1249.082C684.861,1249.082 677.501,1252.072 673.121,1251.667C669.577,1251.34 666.168,1249.407 662.709,1247.553C662.135,1249.206 661.346,1250.82 661.2,1252.581C661.672,1255.098 662.63,1257.664 662.066,1260.256C663.239,1260.774 664.411,1261.292 665.589,1261.799C667.146,1262.59 668.864,1263.036 670.356,1263.953C672.414,1265.826 673.547,1268.461 675.172,1270.684C676.261,1272.496 678.285,1273.575 679.171,1275.517C679.805,1274.536 680.495,1273.555 681.31,1272.626C686.758,1267.125 692.407,1265.336 699.25,1252.307C699.25,1252.307 701.507,1254.547 703.425,1254.644C705.232,1254.736 709.752,1254.88 711.611,1256.568C712.333,1257.224 713.794,1255.458 714.114,1255.546C714.77,1255.726 714.05,1253.384 714.044,1252.804C714.044,1252.361 714.025,1251.837 713.68,1251.524C710.924,1249.018 705.977,1247.059 704.169,1243.012C703.574,1241.68 697.549,1238.475 697.549,1238.475L697.549,1238.475ZM657.334,1269.062C657.509,1269.356 657.698,1269.642 657.89,1269.925C658.033,1269.678 658.16,1269.422 658.273,1269.164C657.96,1269.135 657.647,1269.102 657.334,1269.062ZM591.684,1271.659C591.417,1271.659 591.142,1271.677 590.858,1271.707C589.24,1273.974 588.082,1274.942 586.557,1277.004C585.865,1277.938 584.121,1279.577 584.062,1280.697C583.939,1283.065 585.477,1284.031 587.035,1286.565C588.405,1288.795 589.841,1291.972 590.782,1294.051C590.782,1294.051 592.782,1294.492 593.374,1295.498C593.666,1295.994 593.109,1296.795 593.523,1297.193C594.656,1298.282 597.688,1298.114 598.798,1297.527C599.297,1297.263 597.244,1294.528 597.244,1294.528C596.826,1293.722 594.8,1293.402 593.342,1291.099C592.247,1289.37 589.905,1287.53 589.359,1283.201C588.98,1280.197 593.737,1277.334 596.355,1273.095C595.008,1272.28 593.55,1271.643 591.684,1271.659L591.684,1271.659ZM648.857,1272.141C648.13,1273.675 647.426,1275.105 647.558,1275.56C647.844,1276.549 650.6,1278.496 651.05,1278.81C651.582,1277.964 652.313,1277.142 652.34,1276.113C651.455,1274.559 650.168,1273.341 648.857,1272.141ZM611.834,1275.27C610.7,1275.482 609.553,1275.618 608.402,1275.685C608.147,1275.708 607.892,1275.725 607.636,1275.739C606.54,1278.68 605.476,1282.019 605.476,1282.019C605.476,1282.019 604.172,1282.842 604.026,1283.646C603.872,1284.493 604.876,1285.17 604.834,1285.998C604.772,1287.221 603.023,1287.375 603.183,1288.308C603.464,1289.947 604.47,1290.648 605.483,1290.906C605.573,1289.948 606.067,1288.98 606.603,1288.224C606.872,1287.779 607.209,1287.36 607.594,1286.987C608.547,1283.193 610.14,1278.187 611.834,1275.27L611.834,1275.27ZM671.536,1279.03C670.143,1281.523 668.586,1283.867 668.586,1283.867C668.586,1283.867 666.536,1284.825 665.431,1284.963C664.397,1285.092 660.92,1285.548 660.92,1285.548C660.268,1285.634 660.007,1285.756 659.852,1285.89C659.052,1284.771 658.116,1283.748 657.175,1282.694C656.733,1283.231 656.283,1283.762 655.818,1284.278C656.389,1285.009 656.957,1285.758 657.52,1286.529C656.79,1286.447 656.031,1286.309 655.323,1286.477C654.575,1286.655 656.595,1291.217 657.509,1290.546L659.266,1289.257C659.064,1290.216 659.88,1291.515 658.233,1292.43C658.786,1294.842 659.873,1295.822 660.971,1296.602C660.971,1296.602 661.911,1295.185 662.06,1294.132C662.204,1293.112 661.403,1291.89 661.272,1290.889C661.168,1290.108 661.634,1289.295 661.272,1288.393C662.108,1288.393 663.361,1288.364 664.016,1288.238C665.318,1287.986 667.378,1287.016 667.378,1287.016C667.069,1288.747 666.742,1290.348 665.38,1291.991C664.824,1292.663 665.418,1293.592 665.437,1294.451C665.456,1295.364 665.15,1296.354 664.704,1297.258C665.712,1298.08 667.342,1298.285 669.075,1297.483C670.399,1296.87 667.895,1295.3 667.954,1294.121C668.114,1290.931 669.614,1287.634 671.876,1285.38C672.483,1284.775 673.548,1284.81 674.323,1284.458C674.143,1284.325 673.969,1284.187 673.805,1284.037C672.814,1283.312 672.451,1281.984 672.802,1280.827C673.183,1280.328 672.498,1280.268 672.244,1279.966C671.903,1279.711 671.69,1279.387 671.541,1279.03L671.536,1279.03Z" style="fill:rgb(163,0,21);fill-rule:nonzero;"/>
    </g>
</svg>
